<?xml version="1.0" standalone="no"?>
<!DOCTYPE svg PUBLIC "-//W3C//DTD SVG 20010904//EN"
 "http://www.w3.org/TR/2001/REC-SVG-20010904/DTD/svg10.dtd">
<svg version="1.0" xmlns="http://www.w3.org/2000/svg"
 width="207.000000pt" height="281.000000pt" viewBox="0 0 207.000000 281.000000"
 preserveAspectRatio="xMidYMid meet">
<metadata>
Created by potrace 1.16, written by Peter Selinger 2001-2019
</metadata>
<g transform="translate(0.000000,281.000000) scale(0.100000,-0.100000)"
fill="#000000" stroke="none">
<path d="M944 2729 c-75 -21 -186 -160 -397 -491 -194 -306 -391 -675 -457
-855 -45 -126 -63 -246 -57 -378 7 -139 34 -243 96 -370 61 -126 117 -200 235
-312 143 -135 318 -230 501 -271 106 -24 308 -21 410 7 97 26 248 97 329 155
91 65 235 220 294 315 152 248 183 556 82 832 -52 144 -286 568 -577 1048
-176 291 -220 331 -358 330 -38 0 -84 -5 -101 -10z m279 -449 c397 -662 566
-979 593 -1120 65 -329 -140 -693 -479 -851 -285 -132 -611 -51 -868 218 -203
213 -276 485 -194 727 49 148 197 436 363 711 161 264 400 612 412 598 4 -4
82 -132 173 -283z"/>
</g>
</svg>
