<?xml version="1.0" standalone="no"?>
<!DOCTYPE svg PUBLIC "-//W3C//DTD SVG 20010904//EN"
 "http://www.w3.org/TR/2001/REC-SVG-20010904/DTD/svg10.dtd">
<svg version="1.0" xmlns="http://www.w3.org/2000/svg"
 width="207.000000pt" height="282.000000pt" viewBox="0 0 207.000000 282.000000"
 preserveAspectRatio="xMidYMid meet">
<metadata>
Created by potrace 1.16, written by Peter Selinger 2001-2019
</metadata>
<g transform="translate(0.000000,282.000000) scale(0.100000,-0.100000)"
fill="#000000" stroke="none">
<path d="M965 2741 c-81 -21 -118 -57 -235 -221 -258 -363 -571 -921 -649
-1155 -78 -237 -64 -497 38 -712 221 -461 750 -716 1195 -576 172 54 300 134
436 273 269 273 356 644 235 999 -46 137 -313 622 -593 1079 -141 231 -158
253 -217 288 -47 27 -154 40 -210 25z"/>
</g>
</svg>
