<?xml version="1.0" standalone="no"?>
<!DOCTYPE svg PUBLIC "-//W3C//DTD SVG 20010904//EN"
 "http://www.w3.org/TR/2001/REC-SVG-20010904/DTD/svg10.dtd">
<svg version="1.0" xmlns="http://www.w3.org/2000/svg"
 width="208.000000pt" height="281.000000pt" viewBox="0 0 208.000000 281.000000"
 preserveAspectRatio="xMidYMid meet">
<metadata>
Created by potrace 1.16, written by Peter Selinger 2001-2019
</metadata>
<g transform="translate(0.000000,281.000000) scale(0.100000,-0.100000)"
fill="#000000" stroke="none">
<path d="M946 2725 c-57 -20 -125 -92 -230 -245 -255 -368 -539 -872 -621
-1100 -79 -222 -81 -415 -6 -637 50 -148 120 -260 241 -384 293 -299 681 -401
1039 -273 131 47 238 114 347 217 109 103 158 165 213 268 73 136 121 317 121
460 0 83 -28 233 -61 323 -51 140 -246 495 -558 1016 -159 265 -216 337 -287
358 -54 16 -149 15 -198 -3z m219 -338 c406 -673 616 -1057 651 -1187 23 -87
23 -253 0 -339 -78 -288 -323 -531 -609 -603 -223 -56 -482 27 -689 221 -128
120 -216 262 -254 411 -23 92 -16 280 15 370 33 96 197 421 307 610 128 219
447 699 464 699 3 0 54 -82 115 -182z"/>
</g>
</svg>
